<mxfile modified="2022-05-04T23:40:04.303Z" host="app.diagrams.net" agent="5.0 (Windows NT 10.0; Win64; x64) AppleWebKit/537.36 (KHTML, like Gecko) Chrome/100.0.4896.127 Safari/537.36 Edg/100.0.1185.50" etag="Us0eeiVv0Bj_e-wMVxSx" compressed="false" version="17.5.0" type="google">
  <diagram name="Deployment/Containers/Portability Myth/3" id="072dv2i5wFk3ltKUCZkM">
    <mxGraphModel grid="1" page="1" gridSize="10" guides="1" tooltips="1" connect="1" arrows="1" fold="1" pageScale="1" pageWidth="827" pageHeight="1169" math="0" shadow="0">
      <root>
        <mxCell id="rRNSEtzgQjG-U7Zs-_yA-0" />
        <mxCell id="rRNSEtzgQjG-U7Zs-_yA-1" parent="rRNSEtzgQjG-U7Zs-_yA-0" />
        <mxCell id="rRNSEtzgQjG-U7Zs-_yA-21" value="&lt;div&gt;Trivial&lt;br&gt;Information&lt;/div&gt;&lt;div&gt;System&lt;/div&gt;" style="rounded=0;whiteSpace=wrap;html=1;dashed=1;verticalAlign=top;align=left;fillColor=none;" vertex="1" parent="rRNSEtzgQjG-U7Zs-_yA-1">
          <mxGeometry x="155" y="550" width="190" height="110" as="geometry" />
        </mxCell>
        <mxCell id="rRNSEtzgQjG-U7Zs-_yA-2" value="" style="aspect=fixed;pointerEvents=1;shadow=0;dashed=0;html=1;labelPosition=center;verticalLabelPosition=bottom;verticalAlign=top;align=center;fillColor=#dae8fc;shape=mxgraph.mscae.enterprise.internet_hollow;strokeColor=none;container=1;collapsible=0;recursiveResize=0;resizeWidth=1;resizeHeight=1;" vertex="1" parent="rRNSEtzgQjG-U7Zs-_yA-1">
          <mxGeometry x="120" y="240" width="280" height="175.96" as="geometry" />
        </mxCell>
        <mxCell id="rRNSEtzgQjG-U7Zs-_yA-5" value="WAF Service" style="rounded=0;whiteSpace=wrap;html=1;" vertex="1" parent="rRNSEtzgQjG-U7Zs-_yA-2">
          <mxGeometry x="100" y="20" width="60" height="40" as="geometry" />
        </mxCell>
        <mxCell id="rRNSEtzgQjG-U7Zs-_yA-6" style="edgeStyle=none;rounded=0;orthogonalLoop=1;jettySize=auto;html=1;entryX=0.5;entryY=1;entryDx=0;entryDy=0;endArrow=none;endFill=0;strokeColor=#00CC00;" edge="1" parent="rRNSEtzgQjG-U7Zs-_yA-2" source="rRNSEtzgQjG-U7Zs-_yA-8" target="rRNSEtzgQjG-U7Zs-_yA-5">
          <mxGeometry relative="1" as="geometry" />
        </mxCell>
        <mxCell id="rRNSEtzgQjG-U7Zs-_yA-8" value="API Gateway Service" style="rounded=0;whiteSpace=wrap;html=1;" vertex="1" parent="rRNSEtzgQjG-U7Zs-_yA-2">
          <mxGeometry x="170" y="90" width="60" height="40" as="geometry" />
        </mxCell>
        <mxCell id="rRNSEtzgQjG-U7Zs-_yA-26" value="Web UI Services" style="rounded=0;whiteSpace=wrap;html=1;" vertex="1" parent="rRNSEtzgQjG-U7Zs-_yA-2">
          <mxGeometry x="20" y="90" width="60" height="40" as="geometry" />
        </mxCell>
        <mxCell id="rRNSEtzgQjG-U7Zs-_yA-27" style="edgeStyle=none;rounded=0;orthogonalLoop=1;jettySize=auto;html=1;entryX=1;entryY=0.5;entryDx=0;entryDy=0;endArrow=none;endFill=0;strokeColor=#00CC00;strokeWidth=2;" edge="1" parent="rRNSEtzgQjG-U7Zs-_yA-2" target="rRNSEtzgQjG-U7Zs-_yA-26">
          <mxGeometry relative="1" as="geometry">
            <mxPoint x="170" y="110" as="sourcePoint" />
            <mxPoint x="260" y="310" as="targetPoint" />
          </mxGeometry>
        </mxCell>
        <mxCell id="rRNSEtzgQjG-U7Zs-_yA-28" style="edgeStyle=none;rounded=0;orthogonalLoop=1;jettySize=auto;html=1;entryX=0.5;entryY=1;entryDx=0;entryDy=0;endArrow=none;endFill=0;exitX=0.5;exitY=0;exitDx=0;exitDy=0;strokeColor=#00CC00;" edge="1" parent="rRNSEtzgQjG-U7Zs-_yA-2" source="rRNSEtzgQjG-U7Zs-_yA-26" target="rRNSEtzgQjG-U7Zs-_yA-5">
          <mxGeometry relative="1" as="geometry">
            <mxPoint x="300" y="325.9885714285715" as="sourcePoint" />
            <mxPoint x="260" y="310" as="targetPoint" />
          </mxGeometry>
        </mxCell>
        <mxCell id="rRNSEtzgQjG-U7Zs-_yA-9" style="edgeStyle=none;rounded=0;orthogonalLoop=1;jettySize=auto;html=1;entryX=0.5;entryY=1;entryDx=0;entryDy=0;endArrow=none;endFill=0;strokeColor=#FF8000;strokeWidth=2;exitX=1;exitY=0.5;exitDx=0;exitDy=0;" edge="1" parent="rRNSEtzgQjG-U7Zs-_yA-1" source="rRNSEtzgQjG-U7Zs-_yA-8" target="rRNSEtzgQjG-U7Zs-_yA-10">
          <mxGeometry relative="1" as="geometry">
            <Array as="points">
              <mxPoint x="420" y="350" />
            </Array>
          </mxGeometry>
        </mxCell>
        <mxCell id="rRNSEtzgQjG-U7Zs-_yA-10" value="IdP Service" style="rounded=0;whiteSpace=wrap;html=1;" vertex="1" parent="rRNSEtzgQjG-U7Zs-_yA-1">
          <mxGeometry x="390" y="190" width="60" height="40" as="geometry" />
        </mxCell>
        <mxCell id="rRNSEtzgQjG-U7Zs-_yA-11" style="edgeStyle=none;rounded=0;orthogonalLoop=1;jettySize=auto;html=1;endArrow=none;endFill=0;strokeColor=#FF8000;strokeWidth=5;" edge="1" parent="rRNSEtzgQjG-U7Zs-_yA-1" source="rRNSEtzgQjG-U7Zs-_yA-14" target="rRNSEtzgQjG-U7Zs-_yA-5">
          <mxGeometry relative="1" as="geometry" />
        </mxCell>
        <mxCell id="rRNSEtzgQjG-U7Zs-_yA-12" style="edgeStyle=none;rounded=0;orthogonalLoop=1;jettySize=auto;html=1;entryX=0;entryY=0.5;entryDx=0;entryDy=0;endArrow=none;endFill=0;strokeColor=#FF8000;strokeWidth=2;" edge="1" parent="rRNSEtzgQjG-U7Zs-_yA-1" source="rRNSEtzgQjG-U7Zs-_yA-14" target="rRNSEtzgQjG-U7Zs-_yA-10">
          <mxGeometry relative="1" as="geometry" />
        </mxCell>
        <mxCell id="rRNSEtzgQjG-U7Zs-_yA-13" style="edgeStyle=none;rounded=0;orthogonalLoop=1;jettySize=auto;html=1;entryX=0;entryY=0.5;entryDx=0;entryDy=0;endArrow=none;endFill=0;strokeColor=#00CC00;" edge="1" parent="rRNSEtzgQjG-U7Zs-_yA-1" source="rRNSEtzgQjG-U7Zs-_yA-14" target="rRNSEtzgQjG-U7Zs-_yA-15">
          <mxGeometry relative="1" as="geometry" />
        </mxCell>
        <mxCell id="rRNSEtzgQjG-U7Zs-_yA-14" value="Service Client" style="rounded=0;whiteSpace=wrap;html=1;" vertex="1" parent="rRNSEtzgQjG-U7Zs-_yA-1">
          <mxGeometry x="220" y="190" width="60" height="40" as="geometry" />
        </mxCell>
        <mxCell id="rRNSEtzgQjG-U7Zs-_yA-15" value="DNS Service" style="rounded=0;whiteSpace=wrap;html=1;" vertex="1" parent="rRNSEtzgQjG-U7Zs-_yA-1">
          <mxGeometry x="120" y="190" width="60" height="40" as="geometry" />
        </mxCell>
        <mxCell id="rRNSEtzgQjG-U7Zs-_yA-16" value="" style="aspect=fixed;pointerEvents=1;shadow=0;dashed=0;html=1;labelPosition=center;verticalLabelPosition=bottom;verticalAlign=top;align=center;fillColor=#dae8fc;shape=mxgraph.mscae.enterprise.internet_hollow;strokeColor=none;container=1;collapsible=0;recursiveResize=0;resizeWidth=1;resizeHeight=1;" vertex="1" parent="rRNSEtzgQjG-U7Zs-_yA-1">
          <mxGeometry x="120" y="450" width="280.01" height="190" as="geometry" />
        </mxCell>
        <mxCell id="rRNSEtzgQjG-U7Zs-_yA-3" value="Cloud Specific Services" style="rounded=0;whiteSpace=wrap;html=1;" vertex="1" parent="rRNSEtzgQjG-U7Zs-_yA-16">
          <mxGeometry x="60" y="150" width="60" height="40" as="geometry" />
        </mxCell>
        <mxCell id="rRNSEtzgQjG-U7Zs-_yA-4" value="Database Service" style="rounded=0;whiteSpace=wrap;html=1;" vertex="1" parent="rRNSEtzgQjG-U7Zs-_yA-16">
          <mxGeometry x="160" y="150" width="60" height="40" as="geometry" />
        </mxCell>
        <mxCell id="rRNSEtzgQjG-U7Zs-_yA-17" value="&lt;p style=&quot;line-height: 90%&quot;&gt;Container&lt;br&gt;based Web Service&lt;/p&gt;" style="rounded=0;whiteSpace=wrap;html=1;" vertex="1" parent="rRNSEtzgQjG-U7Zs-_yA-16">
          <mxGeometry x="110" y="100" width="60" height="40" as="geometry" />
        </mxCell>
        <mxCell id="rRNSEtzgQjG-U7Zs-_yA-18" style="rounded=0;orthogonalLoop=1;jettySize=auto;html=1;entryX=0.5;entryY=0;entryDx=0;entryDy=0;endArrow=none;endFill=0;fillColor=#f8cecc;strokeWidth=5;strokeColor=#FF9933;" edge="1" parent="rRNSEtzgQjG-U7Zs-_yA-16" source="rRNSEtzgQjG-U7Zs-_yA-17" target="rRNSEtzgQjG-U7Zs-_yA-3">
          <mxGeometry relative="1" as="geometry" />
        </mxCell>
        <mxCell id="rRNSEtzgQjG-U7Zs-_yA-19" style="edgeStyle=none;rounded=0;orthogonalLoop=1;jettySize=auto;html=1;entryX=0.5;entryY=0;entryDx=0;entryDy=0;endArrow=none;endFill=0;fillColor=#f8cecc;strokeWidth=5;strokeColor=#FF9933;" edge="1" parent="rRNSEtzgQjG-U7Zs-_yA-16" source="rRNSEtzgQjG-U7Zs-_yA-17" target="rRNSEtzgQjG-U7Zs-_yA-4">
          <mxGeometry relative="1" as="geometry" />
        </mxCell>
        <UserObject label="If you split your presentation tier to a different cloud provider than the service tier, you have the worst of all worlds: added latency, added complexity and cost and it is even &lt;i&gt;more&lt;/i&gt; brittle. If &lt;u&gt;&lt;i&gt;either&lt;/i&gt;&lt;/u&gt; the front or back are unavailable, the system is unusable.&amp;nbsp;" link="https://marckean.com/2019/01/23/latency-between-azure-aws-within-region/" id="rRNSEtzgQjG-U7Zs-_yA-22">
          <mxCell style="text;html=1;strokeColor=none;fillColor=none;align=left;verticalAlign=middle;whiteSpace=wrap;rounded=0;dashed=1;movable=1;resizable=1;rotatable=1;deletable=1;editable=1;connectable=1;" vertex="1" parent="rRNSEtzgQjG-U7Zs-_yA-1">
            <mxGeometry x="440" y="270" width="240" height="90" as="geometry" />
          </mxCell>
        </UserObject>
        <UserObject label="https://shorturl.at/dhyO0" link="https://shorturl.at/dhyO0" id="rRNSEtzgQjG-U7Zs-_yA-23">
          <mxCell style="text;html=1;strokeColor=none;fillColor=none;align=left;verticalAlign=middle;whiteSpace=wrap;rounded=0;dashed=1;" vertex="1" parent="rRNSEtzgQjG-U7Zs-_yA-1">
            <mxGeometry x="440" y="360" width="200" height="20" as="geometry" />
          </mxCell>
        </UserObject>
        <mxCell id="rRNSEtzgQjG-U7Zs-_yA-24" value="&lt;font style=&quot;font-size: 12px ; font-weight: normal&quot;&gt;&lt;i&gt;Diagram: Base&amp;nbsp;&lt;/i&gt;&lt;span style=&quot;font-style: italic&quot;&gt;System&amp;nbsp;&lt;/span&gt;&lt;i&gt;Logical Module -&amp;nbsp;Deployment - The Portable Container myth - part 3/3&lt;/i&gt;&lt;/font&gt;" style="text;strokeColor=none;fillColor=none;html=1;fontSize=24;fontStyle=1;verticalAlign=middle;align=left;shadow=0;glass=0;comic=0;opacity=30;fontColor=#808080;" vertex="1" parent="rRNSEtzgQjG-U7Zs-_yA-1">
          <mxGeometry x="120" y="680" width="520" height="40" as="geometry" />
        </mxCell>
        <mxCell id="rRNSEtzgQjG-U7Zs-_yA-7" style="edgeStyle=none;rounded=0;orthogonalLoop=1;jettySize=auto;html=1;entryX=0.5;entryY=0;entryDx=0;entryDy=0;endArrow=none;endFill=0;fillColor=#f8cecc;strokeWidth=5;strokeColor=#FF9933;exitX=0.5;exitY=1;exitDx=0;exitDy=0;sketch=1;simplification=1;" edge="1" parent="rRNSEtzgQjG-U7Zs-_yA-1" source="rRNSEtzgQjG-U7Zs-_yA-8" target="rRNSEtzgQjG-U7Zs-_yA-17">
          <mxGeometry relative="1" as="geometry">
            <mxPoint x="260" y="320" as="sourcePoint" />
          </mxGeometry>
        </mxCell>
        <mxCell id="rRNSEtzgQjG-U7Zs-_yA-29" style="edgeStyle=none;rounded=0;orthogonalLoop=1;jettySize=auto;html=1;entryX=0.5;entryY=0;entryDx=0;entryDy=0;endArrow=none;endFill=0;fillColor=#f8cecc;strokeWidth=5;strokeColor=#FF9933;exitX=0.5;exitY=1;exitDx=0;exitDy=0;sketch=1;sketchStyle=rough;" edge="1" parent="rRNSEtzgQjG-U7Zs-_yA-1" source="rRNSEtzgQjG-U7Zs-_yA-26" target="rRNSEtzgQjG-U7Zs-_yA-17">
          <mxGeometry relative="1" as="geometry">
            <mxPoint x="330" y="380" as="sourcePoint" />
            <mxPoint x="270" y="560" as="targetPoint" />
          </mxGeometry>
        </mxCell>
        <UserObject label="Cloud specific services that are not portable include: caching, malware detection, key store services, blob &amp;amp; file services, API gateways, WAFs, AI, geo IP conversion, maps, etc.&lt;br&gt;About the only service that are portable are very mature and simple services. &lt;br&gt;Like web services." id="dYMSJ2AZmsi5sZaMz9i1-0">
          <mxCell style="text;html=1;strokeColor=none;fillColor=none;align=left;verticalAlign=middle;whiteSpace=wrap;rounded=0;dashed=1;movable=1;resizable=1;rotatable=1;deletable=1;editable=1;connectable=1;" vertex="1" parent="rRNSEtzgQjG-U7Zs-_yA-1">
            <mxGeometry x="440" y="530" width="240" height="110" as="geometry" />
          </mxCell>
        </UserObject>
      </root>
    </mxGraphModel>
  </diagram>
</mxfile>
